<?xml version="1.0" encoding="utf-8"?>
<?xml-stylesheet type="text/xsl" href="rss1.xsl"?>
<rss version="2.0" xmlns:atom="http://www.w3.org/2005/Atom" xmlns:content="http://purl.org/rss/1.0/modules/content/" xmlns:dc="http://purl.org/dc/elements/1.1/" xmlns:media="http://search.yahoo.com/mrss/">
<channel>
 <title>Getty</title>
 <link>http://www.gettyimg.com/</link>
 <atom:link href="http://www.gettyimg.com/" rel="self" type="application/rss+xml" />

 
                <item>
                <title><![CDATA[【Requests】[REQ AUD] - Lady Gaga - ARTPOP (Japanese Edition)]]></title>
                <link><![CDATA[https://sharemania.us/threads/lady-gaga-artpop-japanese-edition.246258/]]></link>
                <description><![CDATA[<article>
<blockquote class="messageText SelectQuoteContainer ugc baseHtml">
<div style="text-align: center"><span style="font-family: 'Book Antiqua'"><span style="font-size: 12px"><span style="color: #000000"><a href="https://www.discogs.com/release/5075866-Lady-Gaga-Artpop" target="_blank" class="externalLink" rel="nofollow">https://www.discogs.com/release/5075866-Lady-Gaga-Artpop</a><br>
<br>
someone please, do you have it in .FLAC / .WAV? all links referring to this album are unavailable, thanks in advance!</span></span></span>​</div>
<div class="messageTextEndMarker">&nbsp;</div>
</blockquote>
</article>]]></description>
                <author><![CDATA[Nuric]]></author>
                </item>

                
                <item>
                <title><![CDATA[【HD Live Performances】WEB-DL - Billy Joel - The 100th Live at Madison Square Garden, 2024 [WEB-DL, 1080p, AAC, E-AC-3 5.1]]]></title>
                <link><![CDATA[https://sharemania.us/threads/billy-joel-the-100th-live-at-madison-square-garden-2024-web-dl-1080p-aac-e-ac-3-5-1.246260/]]></link>
                <description><![CDATA[<article>
<blockquote class="messageText SelectQuoteContainer ugc baseHtml">
<img src="https://i.postimg.cc/vTqt1G5v/rsz-1240411-billyjoel-100th-tv-special.jpg" class="bbCodeImage LbImage" alt="[​IMG]" data-url="https://i.postimg.cc/vTqt1G5v/rsz-1240411-billyjoel-100th-tv-special.jpg" style=""><br>
<br>
Billy Joel: The 100th - Live at Madison Square Garden is Billy Joel’s first concert to air on a broadcast network. The concert special was shot live in March 2024 at Joel’s record-breaking 100th consecutive performance of his residency at Madison Square Garden. The legendary Piano Man celebrates this historic milestone after having sold out the World’s Most Famous Arena every show of his franchise run for ten years, from January 2014 through his final residency show in July 2024.<br>
<br>
<div class="ToggleTriggerAnchor bbCodeSpoilerContainer">
<button type="button" class="button bbCodeSpoilerButton ToggleTrigger Tooltip JsOnly" data-target="> .SpoilerTarget"><span>Spoiler: <span class="SpoilerTitle">Tracklist:</span></span></button>
<div class="SpoilerTarget bbCodeSpoilerText"><ol>
<li>Miami 2017 (Seen the Lights Go Out on Broadway)</li>
<li>My Life</li>
<li>(With Ode to Joy Intro)</li>
<li>Vienna</li>
<li>The Downeaster "Alexa"</li>
<li>Start Me Up</li>
<li>(The Rolling Stones cover) (Partial)</li>
<li>An Innocent Man</li>
<li>The Lion Sleeps Tonight</li>
<li>(Solomon Linda’s Original Evening Birds cover) (Partial)</li>
<li>Barbara Ann</li>
<li>(The Regents cover) (Partial)</li>
<li>The Longest Time</li>
<li>Your Song</li>
<li>(Elton John cover) (Partial)</li>
<li>Zanzibar</li>
<li>Movin' Out (Anthony's Song)</li>
<li>Keeping the Faith</li>
<li>The Entertainer</li>
<li>And So It Goes</li>
<li>Don't Ask Me Why</li>
<li>Allentown</li>
<li>New York State of Mind</li>
<li>Only the Good Die Young</li>
<li>Sometimes a Fantasy</li>
<li>The River of Dreams</li>
<li>(with “River Deep, Mountain High” interlude)</li>
<li>Nessun dorma</li>
<li>(Giacomo Puccini cover)</li>
<li>Scenes From an Italian Restaurant</li>
<li>Piano Man</li>
</ol>Encore:<br>
<ol>
<li>We Didn't Start the Fire</li>
<li>Uptown Girl</li>
<li>It's Still Rock and Roll to Me</li>
<li>Big Shot</li>
<li>You May Be Right</li>
<li>(with verse of Led Zeppelin's Rock and Roll)</li>
</ol></div>
</div><br>
<a href="https://fastpic.org/view/123/2024/0606/_f13aa17630987a26d2fffc9e758b304e.png.html" target="_blank" class="externalLink" rel="nofollow"><img src="https://i123.fastpic.org/thumb/2024/0606/4e/_f13aa17630987a26d2fffc9e758b304e.jpeg" class="bbCodeImage LbImage" alt="[​IMG]" data-url="https://i123.fastpic.org/thumb/2024/0606/4e/_f13aa17630987a26d2fffc9e758b304e.jpeg"></a><br>
<br>
This file is a merge of two sources:<br>
I ripped the Video from a site that had that concert for streaming. Apparently it is the same source than the one available on paid YouTube. It had 128 kb/s AAC Audio. I merged it with the E-AC3 6ch Audio and the subtitles that come from a web-dl I downloaded on torrent (Video quality was worse).<br>
<br>
<b>Video: </b>1920x1080, 25fps, 9 mb/s<br>
<b>Audio: </b>AAC 2ch 128 kb/s, E-AC-3 6ch 192 kb/s<br>
<b>Subtitles: </b>Yes<br>
<b>Size: </b>5,75GB<br>
<br>
<div class="ToggleTriggerAnchor bbCodeSpoilerContainer">
<button type="button" class="button bbCodeSpoilerButton ToggleTrigger Tooltip JsOnly" data-target="> .SpoilerTarget"><span>Spoiler: <span class="SpoilerTitle">Mediainfo</span></span></button>
<div class="SpoilerTarget bbCodeSpoilerText"><b>General</b><br>
Unique ID : 327140722611115746719788165829762424046 (0xF61D02E92DB6D5A5746ABB80DE331CEE)<br>
Complete name : D:\Billy Joel The 100th Live at Madison Square Garden_web-dl_Freaky2003.mkv<br>
Format : Matroska<br>
Format version : Version 4<br>
File size : 5.76 GiB<br>
Duration : 1 h 28 min<br>
Overall bit rate : 9 280 kb/s<br>
Movie name : Ripped and encoded by Freaky2003 (sharemania)<br>
Encoded date : UTC 2024-06-06 07:44:47<br>
Writing application : mkvmerge v51.0.0 ('I Wish') 64-bit<br>
Writing library : libebml v1.4.0 + libmatroska v1.6.2<br>
Comment : Ripped and encoded by Freaky2003 (sharemania)<br>
<br>
<b>Video</b><br>
ID : 1<br>
Format : AVC<br>
Format/Info : Advanced Video Codec<br>
Format profile : Main@L4<br>
Format settings : CABAC / 4 Ref Frames<br>
Format settings, CABAC : Yes<br>
Format settings, Reference frames : 4 frames<br>
Codec ID : V_MPEG4/ISO/AVC<br>
Duration : 1 h 28 min<br>
Bit rate mode : Constant<br>
Bit rate : 9 000 kb/s<br>
Width : 1 920 pixels<br>
Height : 1 080 pixels<br>
Display aspect ratio : 16:9<br>
Frame rate mode : Constant<br>
Frame rate : 25.000 FPS<br>
Color space : YUV<br>
Chroma subsampling : 4:2:0<br>
Bit depth : 8 bits<br>
Scan type : Progressive<br>
Bits/(Pixel*Frame) : 0.174<br>
Stream size : 5.56 GiB (97%)<br>
Default : Yes<br>
Forced : No<br>
Color range : Limited<br>
Color primaries : BT.709<br>
Transfer characteristics : BT.709<br>
Matrix coefficients : BT.709<br>
<br>
<b>Audio #1</b><br>
ID : 2<br>
Format : AAC LC<br>
Format/Info : Advanced Audio Codec Low Complexity<br>
Codec ID : A_AAC-2<br>
Duration : 1 h 28 min<br>
Bit rate : 128 kb/s<br>
Channel(s) : 2 channels<br>
Channel layout : L R<br>
Sampling rate : 48.0 kHz<br>
Frame rate : 46.875 FPS (1024 SPF)<br>
Compression mode : Lossy<br>
Stream size : 81.3 MiB (1%)<br>
Language : English<br>
Default : No<br>
Forced : No<br>
<br>
<b>Audio #2</b><br>
ID : 3<br>
Format : E-AC-3<br>
Format/Info : Enhanced AC-3<br>
Commercial name : Dolby Digital Plus<br>
Codec ID : A_EAC3<br>
Duration : 1 h 28 min<br>
Bit rate mode : Constant<br>
Bit rate : 192 kb/s<br>
Channel(s) : 6 channels<br>
Channel layout : L R C LFE Ls Rs<br>
Sampling rate : 48.0 kHz<br>
Frame rate : 31.250 FPS (1536 SPF)<br>
Compression mode : Lossy<br>
Stream size : 122 MiB (2%)<br>
Language : English<br>
Service kind : Complete Main<br>
Default : Yes<br>
Forced : No<br>
<br>
<b>Text</b><br>
ID : 4<br>
Format : UTF-8<br>
Codec ID : S_TEXT/UTF8<br>
Codec ID/Info : UTF-8 Plain Text<br>
Duration : 1 h 28 min<br>
Bit rate : 79 b/s<br>
Count of elements : 1219<br>
Stream size : 51.2 KiB (0%)<br>
Language : English<br>
Default : No<br>
Forced : No</div>
</div><br>
<b><span style="font-size: 15px">Download:</span></b><br>
<span style="font-size: 15px">
<div class="bbCodeBlock bbCodeVfcHH HiddenContent">
<div class="attribution type">Hidden Content:</div>
<blockquote>You must either reply or click 'Like' to see the hidden information contained here.</blockquote>
</div></span>
<div class="messageTextEndMarker">&nbsp;</div>
</blockquote>
</article>]]></description>
                <author><![CDATA[Freaky2003]]></author>
                </item>

                </channel></rss>